<svg xmlns="http://www.w3.org/2000/svg" xmlns:xlink="http://www.w3.org/1999/xlink" width="500" zoomAndPan="magnify" viewBox="0 0 375 374.999991" height="500" preserveAspectRatio="xMidYMid meet" version="1.2"><defs><clipPath id="b4deab6b19"><path d="M 117 175 L 155 175 L 155 223.835938 L 117 223.835938 Z M 117 175 "/></clipPath><clipPath id="62ed1ad137"><path d="M 111.257812 164 L 150 164 L 150 204 L 111.257812 204 Z M 111.257812 164 "/></clipPath><clipPath id="14f4f8a68d"><path d="M 141 151.085938 L 156.257812 151.085938 L 156.257812 168 L 141 168 Z M 141 151.085938 "/></clipPath><clipPath id="7a65b3a4b3"><path d="M 136 146 L 164 146 L 164 173 L 136 173 Z M 136 146 "/></clipPath><clipPath id="10503c527c"><path d="M 155.117188 144.542969 L 165.195312 167.964844 L 143.148438 177.449219 L 133.070312 154.027344 Z M 155.117188 144.542969 "/></clipPath><clipPath id="b93fba96a4"><path d="M 155.117188 144.542969 L 165.195312 167.964844 L 143.148438 177.449219 L 133.070312 154.027344 Z M 155.117188 144.542969 "/></clipPath></defs><g id="d219d5f937"><g style="fill:#009b3a;fill-opacity:1;"><g transform="translate(8.722311, 217.304225)"><path style="stroke:none" d="M 5.578125 -76.640625 L 29.359375 -76.640625 C 36.535156 -76.640625 42.257812 -75.101562 46.53125 -72.03125 C 50.8125 -68.96875 52.953125 -64 52.953125 -57.125 C 52.953125 -49.445312 49.757812 -43.96875 43.375 -40.6875 C 54.28125 -38.769531 59.734375 -32.328125 59.734375 -21.359375 C 59.734375 -14.921875 57.503906 -9.75 53.046875 -5.84375 C 48.585938 -1.945312 42.453125 0 34.640625 0 L 5.578125 0 Z M 23.03125 -46.625 L 24.4375 -46.625 C 28.332031 -46.625 31.238281 -47.304688 33.15625 -48.671875 C 35.082031 -50.035156 36.046875 -52.265625 36.046875 -55.359375 C 36.046875 -60.566406 32.175781 -63.171875 24.4375 -63.171875 L 23.03125 -63.171875 Z M 23.03125 -13.46875 L 28.515625 -13.46875 C 37.066406 -13.46875 41.34375 -16.316406 41.34375 -22.015625 C 41.34375 -25.421875 40.269531 -27.863281 38.125 -29.34375 C 35.988281 -30.832031 32.785156 -31.578125 28.515625 -31.578125 L 23.03125 -31.578125 Z M 23.03125 -13.46875 "/></g></g><g style="fill:#009b3a;fill-opacity:1;"><g transform="translate(63.522604, 217.304225)"><path style="stroke:none" d="M 5.578125 0 L 5.578125 -47.65625 L 22.015625 -47.65625 L 22.015625 -40.78125 L 22.203125 -40.78125 C 22.328125 -41.03125 22.523438 -41.335938 22.796875 -41.703125 C 23.078125 -42.078125 23.679688 -42.726562 24.609375 -43.65625 C 25.546875 -44.582031 26.539062 -45.414062 27.59375 -46.15625 C 28.644531 -46.90625 30.003906 -47.570312 31.671875 -48.15625 C 33.347656 -48.75 35.050781 -49.046875 36.78125 -49.046875 C 38.582031 -49.046875 40.347656 -48.796875 42.078125 -48.296875 C 43.816406 -47.804688 45.085938 -47.3125 45.890625 -46.8125 L 47.1875 -46.078125 L 40.3125 -32.140625 C 38.269531 -33.867188 35.421875 -34.734375 31.765625 -34.734375 C 29.785156 -34.734375 28.082031 -34.300781 26.65625 -33.4375 C 25.226562 -32.570312 24.222656 -31.519531 23.640625 -30.28125 C 23.054688 -29.039062 22.640625 -27.988281 22.390625 -27.125 C 22.140625 -26.257812 22.015625 -25.578125 22.015625 -25.078125 L 22.015625 0 Z M 5.578125 0 "/></g></g><g style="fill:#009b3a;fill-opacity:1;"><g transform="translate(102.730117, 217.304225)"><path style="stroke:none" d=""/></g></g><g style="fill:#009b3a;fill-opacity:1;"><g transform="translate(121.027491, 217.304225)"><path style="stroke:none" d=""/></g></g><g style="fill:#009b3a;fill-opacity:1;"><g transform="translate(139.324865, 217.304225)"><path style="stroke:none" d=""/></g></g><g style="fill:#007c91;fill-opacity:1;"><g transform="translate(157.632461, 217.304225)"><path style="stroke:none" d="M 8.828125 -5.890625 C 4.367188 -10.753906 2.140625 -16.71875 2.140625 -23.78125 C 2.140625 -30.84375 4.367188 -36.816406 8.828125 -41.703125 C 13.285156 -46.597656 18.953125 -49.046875 25.828125 -49.046875 C 32.140625 -49.046875 37.335938 -47.0625 41.421875 -43.09375 L 41.421875 -47.65625 L 57.875 -47.65625 L 57.875 0 L 41.609375 0 L 41.609375 -5.390625 L 41.421875 -5.390625 C 37.335938 -0.867188 32.140625 1.390625 25.828125 1.390625 C 18.953125 1.390625 13.285156 -1.035156 8.828125 -5.890625 Z M 22.796875 -31.859375 C 20.660156 -29.753906 19.59375 -27.0625 19.59375 -23.78125 C 19.59375 -20.5 20.613281 -17.820312 22.65625 -15.75 C 24.707031 -13.675781 27.40625 -12.640625 30.75 -12.640625 C 33.96875 -12.640625 36.613281 -13.691406 38.6875 -15.796875 C 40.757812 -17.898438 41.796875 -20.5625 41.796875 -23.78125 C 41.796875 -27.0625 40.726562 -29.753906 38.59375 -31.859375 C 36.457031 -33.960938 33.84375 -35.015625 30.75 -35.015625 C 27.59375 -35.015625 24.941406 -33.960938 22.796875 -31.859375 Z M 22.796875 -31.859375 "/></g></g><g style="fill:#007c91;fill-opacity:1;"><g transform="translate(214.011753, 217.304225)"><path style="stroke:none" d="M 8.359375 -47.65625 L 8.359375 -65.390625 L 24.796875 -65.390625 L 24.796875 -47.65625 L 34.828125 -47.65625 L 34.828125 -35.109375 L 24.796875 -35.109375 L 24.796875 -19.96875 C 24.796875 -15.570312 26.035156 -13.375 28.515625 -13.375 C 29.140625 -13.375 29.789062 -13.5 30.46875 -13.75 C 31.144531 -14 31.671875 -14.242188 32.046875 -14.484375 L 32.609375 -14.859375 L 36.6875 -1.578125 C 33.15625 0.398438 29.128906 1.390625 24.609375 1.390625 C 21.515625 1.390625 18.851562 0.847656 16.625 -0.234375 C 14.394531 -1.316406 12.707031 -2.769531 11.5625 -4.59375 C 10.414062 -6.425781 9.59375 -8.347656 9.09375 -10.359375 C 8.601562 -12.367188 8.359375 -14.519531 8.359375 -16.8125 L 8.359375 -35.109375 L 1.484375 -35.109375 L 1.484375 -47.65625 Z M 8.359375 -47.65625 "/></g></g><g style="fill:#007c91;fill-opacity:1;"><g transform="translate(243.640814, 217.304225)"><path style="stroke:none" d="M 5.578125 0 L 5.578125 -79.890625 L 22.015625 -79.890625 L 22.015625 0 Z M 5.578125 0 "/></g></g><g style="fill:#007c91;fill-opacity:1;"><g transform="translate(264.16737, 217.304225)"><path style="stroke:none" d="M 8.828125 -5.890625 C 4.367188 -10.753906 2.140625 -16.71875 2.140625 -23.78125 C 2.140625 -30.84375 4.367188 -36.816406 8.828125 -41.703125 C 13.285156 -46.597656 18.953125 -49.046875 25.828125 -49.046875 C 32.140625 -49.046875 37.335938 -47.0625 41.421875 -43.09375 L 41.421875 -47.65625 L 57.875 -47.65625 L 57.875 0 L 41.609375 0 L 41.609375 -5.390625 L 41.421875 -5.390625 C 37.335938 -0.867188 32.140625 1.390625 25.828125 1.390625 C 18.953125 1.390625 13.285156 -1.035156 8.828125 -5.890625 Z M 22.796875 -31.859375 C 20.660156 -29.753906 19.59375 -27.0625 19.59375 -23.78125 C 19.59375 -20.5 20.613281 -17.820312 22.65625 -15.75 C 24.707031 -13.675781 27.40625 -12.640625 30.75 -12.640625 C 33.96875 -12.640625 36.613281 -13.691406 38.6875 -15.796875 C 40.757812 -17.898438 41.796875 -20.5625 41.796875 -23.78125 C 41.796875 -27.0625 40.726562 -29.753906 38.59375 -31.859375 C 36.457031 -33.960938 33.84375 -35.015625 30.75 -35.015625 C 27.59375 -35.015625 24.941406 -33.960938 22.796875 -31.859375 Z M 22.796875 -31.859375 "/></g></g><g style="fill:#007c91;fill-opacity:1;"><g transform="translate(320.546662, 217.304225)"><path style="stroke:none" d="M 26.28125 -49.046875 C 29.007812 -49.046875 31.703125 -48.734375 34.359375 -48.109375 C 37.023438 -47.492188 39.007812 -46.878906 40.3125 -46.265625 L 42.265625 -45.328125 L 36.875 -34.5625 C 33.15625 -36.539062 29.625 -37.53125 26.28125 -37.53125 C 24.425781 -37.53125 23.109375 -37.328125 22.328125 -36.921875 C 21.554688 -36.515625 21.171875 -35.753906 21.171875 -34.640625 C 21.171875 -34.398438 21.203125 -34.15625 21.265625 -33.90625 C 21.328125 -33.65625 21.453125 -33.421875 21.640625 -33.203125 C 21.828125 -32.992188 22 -32.8125 22.15625 -32.65625 C 22.3125 -32.5 22.570312 -32.328125 22.9375 -32.140625 C 23.3125 -31.953125 23.609375 -31.8125 23.828125 -31.71875 C 24.046875 -31.625 24.398438 -31.484375 24.890625 -31.296875 C 25.390625 -31.117188 25.757812 -30.984375 26 -30.890625 C 26.25 -30.796875 26.664062 -30.65625 27.25 -30.46875 C 27.84375 -30.28125 28.296875 -30.15625 28.609375 -30.09375 C 30.523438 -29.539062 32.195312 -28.921875 33.625 -28.234375 C 35.050781 -27.554688 36.550781 -26.628906 38.125 -25.453125 C 39.707031 -24.273438 40.929688 -22.785156 41.796875 -20.984375 C 42.660156 -19.191406 43.09375 -17.148438 43.09375 -14.859375 C 43.09375 -4.023438 35.570312 1.390625 20.53125 1.390625 C 17.125 1.390625 13.882812 0.863281 10.8125 -0.1875 C 7.75 -1.238281 5.539062 -2.289062 4.1875 -3.34375 L 2.140625 -5.015625 L 8.828125 -16.25 C 9.316406 -15.820312 9.960938 -15.3125 10.765625 -14.71875 C 11.578125 -14.132812 13.035156 -13.332031 15.140625 -12.3125 C 17.242188 -11.289062 19.070312 -10.78125 20.625 -10.78125 C 24.03125 -10.78125 25.734375 -11.925781 25.734375 -14.21875 C 25.734375 -15.269531 25.296875 -16.085938 24.421875 -16.671875 C 23.554688 -17.265625 22.085938 -17.929688 20.015625 -18.671875 C 17.941406 -19.410156 16.316406 -20.09375 15.140625 -20.71875 C 12.171875 -22.257812 9.816406 -24.003906 8.078125 -25.953125 C 6.347656 -27.910156 5.484375 -30.5 5.484375 -33.71875 C 5.484375 -38.550781 7.351562 -42.3125 11.09375 -45 C 14.84375 -47.695312 19.90625 -49.046875 26.28125 -49.046875 Z M 26.28125 -49.046875 "/></g></g><g clip-rule="nonzero" clip-path="url(#b4deab6b19)"><path style=" stroke:none;fill-rule:nonzero;fill:#ffcc29;fill-opacity:1;" d="M 146.390625 190.839844 C 145.90625 191.90625 145.390625 192.917969 144.835938 193.871094 C 144.296875 196.605469 142.890625 199.515625 140.34375 202.441406 C 134.609375 209.027344 124.214844 209.253906 117.542969 206.457031 C 123.308594 215.753906 133.046875 223.371094 133.046875 223.371094 C 133.046875 223.371094 154.828125 206.328125 154.828125 188.902344 C 154.828125 183.910156 153.148438 179.3125 150.324219 175.640625 C 149.664062 181.429688 148.339844 186.535156 146.390625 190.839844 Z M 146.390625 190.839844 "/></g><g clip-rule="nonzero" clip-path="url(#62ed1ad137)"><path style=" stroke:none;fill-rule:nonzero;fill:#ffcc29;fill-opacity:1;" d="M 127.988281 203.558594 C 131.414062 203.464844 134.617188 202.339844 137.445312 200.238281 C 138.960938 199.117188 140.367188 197.71875 141.644531 196.050781 C 142.921875 194.378906 144.070312 192.441406 145.0625 190.238281 C 147.042969 185.867188 148.421875 180.464844 149.023438 174.097656 C 149.292969 171.203125 149.40625 168.109375 149.339844 164.820312 C 148.675781 167.351562 147.945312 169.875 147.144531 172.300781 C 145.789062 176.394531 144.226562 180.234375 142.433594 183.449219 C 139.65625 188.433594 136.320312 191.921875 132.335938 192.5625 C 122.285156 194.175781 121.664062 179.21875 132.402344 178.617188 C 135.6875 178.433594 138.996094 179.839844 141.410156 182.285156 C 142.941406 179.457031 144.402344 175.949219 145.761719 171.84375 C 145.816406 171.675781 145.871094 171.507812 145.925781 171.339844 C 142.316406 168.6875 137.867188 167.125 133.046875 167.125 C 121.015625 167.125 111.265625 176.875 111.265625 188.902344 C 111.265625 189.058594 111.265625 189.867188 111.3125 190.292969 C 112.316406 199.449219 119.464844 203.800781 127.988281 203.558594 Z M 127.988281 203.558594 "/></g><g clip-rule="nonzero" clip-path="url(#14f4f8a68d)"><path style=" stroke:none;fill-rule:nonzero;fill:#ffcc29;fill-opacity:1;" d="M 149.542969 158.796875 L 151.265625 167.246094 L 156.246094 167.53125 L 149.988281 151.085938 L 141.878906 166.703125 L 146.859375 166.992188 Z M 149.542969 158.796875 "/></g><g style="fill:#444c56;fill-opacity:1;"><g transform="translate(93.946918, 240.346083)"><path style="stroke:none" d="M 4.015625 0.15625 C 3.347656 0.15625 2.765625 0.0390625 2.265625 -0.1875 C 1.773438 -0.414062 1.394531 -0.734375 1.125 -1.140625 C 0.863281 -1.554688 0.726562 -2.035156 0.71875 -2.578125 L 1.78125 -2.578125 C 1.789062 -2.046875 2 -1.625 2.40625 -1.3125 C 2.820312 -1.007812 3.359375 -0.859375 4.015625 -0.859375 C 4.609375 -0.859375 5.078125 -0.972656 5.421875 -1.203125 C 5.773438 -1.429688 5.953125 -1.753906 5.953125 -2.171875 C 5.953125 -2.566406 5.78125 -2.878906 5.4375 -3.109375 C 5.101562 -3.347656 4.554688 -3.554688 3.796875 -3.734375 C 2.765625 -3.984375 2.007812 -4.300781 1.53125 -4.6875 C 1.050781 -5.070312 0.8125 -5.585938 0.8125 -6.234375 C 0.8125 -6.953125 1.082031 -7.519531 1.625 -7.9375 C 2.164062 -8.351562 2.894531 -8.5625 3.8125 -8.5625 C 4.757812 -8.5625 5.503906 -8.320312 6.046875 -7.84375 C 6.597656 -7.375 6.878906 -6.734375 6.890625 -5.921875 L 5.84375 -5.921875 C 5.832031 -6.421875 5.644531 -6.816406 5.28125 -7.109375 C 4.914062 -7.398438 4.425781 -7.546875 3.8125 -7.546875 C 3.21875 -7.546875 2.75 -7.425781 2.40625 -7.1875 C 2.0625 -6.957031 1.890625 -6.640625 1.890625 -6.234375 C 1.890625 -5.890625 2.046875 -5.597656 2.359375 -5.359375 C 2.679688 -5.128906 3.25 -4.914062 4.0625 -4.71875 C 5.132812 -4.445312 5.898438 -4.113281 6.359375 -3.71875 C 6.816406 -3.320312 7.046875 -2.816406 7.046875 -2.203125 C 7.046875 -1.472656 6.769531 -0.894531 6.21875 -0.46875 C 5.675781 -0.0507812 4.941406 0.15625 4.015625 0.15625 Z M 4.015625 0.15625 "/></g></g><g style="fill:#444c56;fill-opacity:1;"><g transform="translate(104.326926, 240.346083)"><path style="stroke:none" d="M 1.21875 0 L 1.21875 -8.40625 L 6.328125 -8.40625 L 6.328125 -7.421875 L 2.28125 -7.421875 L 2.28125 -4.765625 L 6.03125 -4.765625 L 6.03125 -3.796875 L 2.28125 -3.796875 L 2.28125 -0.984375 L 6.453125 -0.984375 L 6.453125 0 Z M 1.21875 0 "/></g></g><g style="fill:#444c56;fill-opacity:1;"><g transform="translate(114.178938, 240.346083)"><path style="stroke:none" d="M 4.375 0.140625 C 3.351562 0.140625 2.554688 -0.171875 1.984375 -0.796875 C 1.410156 -1.429688 1.125 -2.304688 1.125 -3.421875 L 1.125 -8.40625 L 2.171875 -8.40625 L 2.171875 -3.484375 C 2.171875 -2.628906 2.359375 -1.984375 2.734375 -1.546875 C 3.109375 -1.109375 3.65625 -0.890625 4.375 -0.890625 C 5.832031 -0.890625 6.5625 -1.753906 6.5625 -3.484375 L 6.5625 -8.40625 L 7.625 -8.40625 L 7.625 -3.421875 C 7.625 -2.304688 7.332031 -1.429688 6.75 -0.796875 C 6.175781 -0.171875 5.382812 0.140625 4.375 0.140625 Z M 4.375 0.140625 "/></g></g><g style="fill:#444c56;fill-opacity:1;"><g transform="translate(125.542944, 240.346083)"><path style="stroke:none" d=""/></g></g><g style="fill:#444c56;fill-opacity:1;"><g transform="translate(131.134939, 240.346083)"><path style="stroke:none" d="M 4.96875 0.15625 C 4.351562 0.15625 3.785156 0.0507812 3.265625 -0.15625 C 2.742188 -0.375 2.289062 -0.675781 1.90625 -1.0625 C 1.519531 -1.457031 1.222656 -1.921875 1.015625 -2.453125 C 0.804688 -2.984375 0.703125 -3.566406 0.703125 -4.203125 C 0.703125 -4.828125 0.800781 -5.40625 1 -5.9375 C 1.207031 -6.46875 1.503906 -6.925781 1.890625 -7.3125 C 2.273438 -7.707031 2.722656 -8.015625 3.234375 -8.234375 C 3.753906 -8.453125 4.320312 -8.5625 4.9375 -8.5625 C 5.582031 -8.5625 6.175781 -8.441406 6.71875 -8.203125 C 7.257812 -7.972656 7.726562 -7.648438 8.125 -7.234375 C 8.519531 -6.816406 8.804688 -6.332031 8.984375 -5.78125 L 7.84375 -5.78125 C 7.570312 -6.320312 7.1875 -6.742188 6.6875 -7.046875 C 6.195312 -7.347656 5.628906 -7.5 4.984375 -7.5 C 4.359375 -7.5 3.800781 -7.359375 3.3125 -7.078125 C 2.832031 -6.796875 2.457031 -6.40625 2.1875 -5.90625 C 1.914062 -5.414062 1.78125 -4.847656 1.78125 -4.203125 C 1.78125 -3.554688 1.914062 -2.984375 2.1875 -2.484375 C 2.46875 -1.984375 2.847656 -1.59375 3.328125 -1.3125 C 3.816406 -1.039062 4.367188 -0.90625 4.984375 -0.90625 C 5.554688 -0.90625 6.0625 -1.015625 6.5 -1.234375 C 6.9375 -1.460938 7.289062 -1.773438 7.5625 -2.171875 C 7.84375 -2.566406 8.019531 -3.023438 8.09375 -3.546875 L 4.6875 -3.546875 L 4.6875 -4.5625 L 9.234375 -4.5625 C 9.253906 -3.644531 9.085938 -2.832031 8.734375 -2.125 C 8.378906 -1.414062 7.878906 -0.859375 7.234375 -0.453125 C 6.585938 -0.046875 5.832031 0.15625 4.96875 0.15625 Z M 4.96875 0.15625 "/></g></g><g style="fill:#444c56;fill-opacity:1;"><g transform="translate(143.650952, 240.346083)"><path style="stroke:none" d="M 4.375 0.140625 C 3.351562 0.140625 2.554688 -0.171875 1.984375 -0.796875 C 1.410156 -1.429688 1.125 -2.304688 1.125 -3.421875 L 1.125 -8.40625 L 2.171875 -8.40625 L 2.171875 -3.484375 C 2.171875 -2.628906 2.359375 -1.984375 2.734375 -1.546875 C 3.109375 -1.109375 3.65625 -0.890625 4.375 -0.890625 C 5.832031 -0.890625 6.5625 -1.753906 6.5625 -3.484375 L 6.5625 -8.40625 L 7.625 -8.40625 L 7.625 -3.421875 C 7.625 -2.304688 7.332031 -1.429688 6.75 -0.796875 C 6.175781 -0.171875 5.382812 0.140625 4.375 0.140625 Z M 4.375 0.140625 "/></g></g><g style="fill:#444c56;fill-opacity:1;"><g transform="translate(155.014957, 240.346083)"><path style="stroke:none" d="M 1.21875 0 L 1.21875 -8.40625 L 2.28125 -8.40625 L 2.28125 0 Z M 1.21875 0 "/></g></g><g style="fill:#444c56;fill-opacity:1;"><g transform="translate(161.13496, 240.346083)"><path style="stroke:none" d="M 0.203125 0 L 3.65625 -8.40625 L 4.640625 -8.40625 L 8.09375 0 L 6.984375 0 L 6.1875 -1.90625 L 2.09375 -1.90625 L 1.328125 0 Z M 2.515625 -2.890625 L 5.796875 -2.890625 L 4.15625 -6.921875 Z M 2.515625 -2.890625 "/></g></g><g style="fill:#444c56;fill-opacity:1;"><g transform="translate(172.054968, 240.346083)"><path style="stroke:none" d=""/></g></g><g style="fill:#444c56;fill-opacity:1;"><g transform="translate(177.646963, 240.346083)"><path style="stroke:none" d="M 1.21875 0 L 1.21875 -8.40625 L 4.0625 -8.40625 C 4.695312 -8.40625 5.25 -8.285156 5.71875 -8.046875 C 6.1875 -7.816406 6.546875 -7.488281 6.796875 -7.0625 C 7.054688 -6.644531 7.1875 -6.148438 7.1875 -5.578125 C 7.1875 -5.003906 7.054688 -4.503906 6.796875 -4.078125 C 6.546875 -3.660156 6.1875 -3.335938 5.71875 -3.109375 C 5.25 -2.878906 4.695312 -2.765625 4.0625 -2.765625 L 2.28125 -2.765625 L 2.28125 0 Z M 2.28125 -3.75 L 4.046875 -3.75 C 5.421875 -3.75 6.109375 -4.351562 6.109375 -5.5625 C 6.109375 -6.78125 5.421875 -7.390625 4.046875 -7.390625 L 2.28125 -7.390625 Z M 2.28125 -3.75 "/></g></g><g style="fill:#444c56;fill-opacity:1;"><g transform="translate(187.930967, 240.346083)"><path style="stroke:none" d="M 1.21875 0 L 1.21875 -8.40625 L 6.328125 -8.40625 L 6.328125 -7.421875 L 2.28125 -7.421875 L 2.28125 -4.765625 L 6.03125 -4.765625 L 6.03125 -3.796875 L 2.28125 -3.796875 L 2.28125 -0.984375 L 6.453125 -0.984375 L 6.453125 0 Z M 1.21875 0 "/></g></g><g style="fill:#444c56;fill-opacity:1;"><g transform="translate(197.782979, 240.346083)"><path style="stroke:none" d="M 1.21875 0 L 1.21875 -8.40625 L 2.28125 -8.40625 L 2.28125 -1.015625 L 6.359375 -1.015625 L 6.359375 0 Z M 1.21875 0 "/></g></g><g style="fill:#444c56;fill-opacity:1;"><g transform="translate(207.130982, 240.346083)"><path style="stroke:none" d="M 5.046875 0.15625 C 4.191406 0.15625 3.4375 -0.0234375 2.78125 -0.390625 C 2.125 -0.765625 1.613281 -1.28125 1.25 -1.9375 C 0.882812 -2.59375 0.703125 -3.347656 0.703125 -4.203125 C 0.703125 -5.054688 0.882812 -5.804688 1.25 -6.453125 C 1.613281 -7.109375 2.125 -7.625 2.78125 -8 C 3.4375 -8.375 4.191406 -8.5625 5.046875 -8.5625 C 5.898438 -8.5625 6.648438 -8.375 7.296875 -8 C 7.953125 -7.625 8.460938 -7.109375 8.828125 -6.453125 C 9.203125 -5.804688 9.390625 -5.054688 9.390625 -4.203125 C 9.390625 -3.347656 9.203125 -2.59375 8.828125 -1.9375 C 8.460938 -1.28125 7.953125 -0.765625 7.296875 -0.390625 C 6.648438 -0.0234375 5.898438 0.15625 5.046875 0.15625 Z M 1.78125 -4.203125 C 1.78125 -3.554688 1.914062 -2.984375 2.1875 -2.484375 C 2.46875 -1.984375 2.851562 -1.59375 3.34375 -1.3125 C 3.832031 -1.039062 4.398438 -0.90625 5.046875 -0.90625 C 5.691406 -0.90625 6.253906 -1.039062 6.734375 -1.3125 C 7.222656 -1.59375 7.601562 -1.984375 7.875 -2.484375 C 8.15625 -2.984375 8.296875 -3.554688 8.296875 -4.203125 C 8.296875 -4.859375 8.15625 -5.429688 7.875 -5.921875 C 7.601562 -6.410156 7.222656 -6.796875 6.734375 -7.078125 C 6.253906 -7.359375 5.691406 -7.5 5.046875 -7.5 C 4.398438 -7.5 3.832031 -7.359375 3.34375 -7.078125 C 2.851562 -6.796875 2.46875 -6.410156 2.1875 -5.921875 C 1.914062 -5.429688 1.78125 -4.859375 1.78125 -4.203125 Z M 1.78125 -4.203125 "/></g></g><g style="fill:#444c56;fill-opacity:1;"><g transform="translate(219.826999, 240.346083)"><path style="stroke:none" d=""/></g></g><g style="fill:#444c56;fill-opacity:1;"><g transform="translate(225.418994, 240.346083)"><path style="stroke:none" d="M 1.21875 0 L 1.21875 -8.40625 L 4.46875 -8.40625 C 5.28125 -8.40625 5.925781 -8.203125 6.40625 -7.796875 C 6.894531 -7.390625 7.140625 -6.847656 7.140625 -6.171875 C 7.140625 -5.765625 7.039062 -5.40625 6.84375 -5.09375 C 6.65625 -4.78125 6.390625 -4.535156 6.046875 -4.359375 C 6.484375 -4.179688 6.8125 -3.921875 7.03125 -3.578125 C 7.257812 -3.234375 7.375 -2.828125 7.375 -2.359375 C 7.375 -1.628906 7.128906 -1.050781 6.640625 -0.625 C 6.148438 -0.207031 5.476562 0 4.625 0 Z M 2.28125 -0.984375 L 4.609375 -0.984375 C 5.148438 -0.984375 5.566406 -1.109375 5.859375 -1.359375 C 6.148438 -1.609375 6.296875 -1.957031 6.296875 -2.40625 C 6.296875 -2.851562 6.144531 -3.195312 5.84375 -3.4375 C 5.550781 -3.675781 5.132812 -3.796875 4.59375 -3.796875 L 2.28125 -3.796875 Z M 2.28125 -4.765625 L 4.453125 -4.765625 C 4.972656 -4.765625 5.367188 -4.878906 5.640625 -5.109375 C 5.921875 -5.335938 6.0625 -5.660156 6.0625 -6.078125 C 6.0625 -6.503906 5.921875 -6.832031 5.640625 -7.0625 C 5.359375 -7.300781 4.960938 -7.421875 4.453125 -7.421875 L 2.28125 -7.421875 Z M 2.28125 -4.765625 "/></g></g><g style="fill:#444c56;fill-opacity:1;"><g transform="translate(236.087004, 240.346083)"><path style="stroke:none" d="M 1.21875 0 L 1.21875 -8.40625 L 4.421875 -8.40625 C 5.003906 -8.40625 5.507812 -8.289062 5.9375 -8.0625 C 6.375 -7.84375 6.710938 -7.535156 6.953125 -7.140625 C 7.191406 -6.742188 7.3125 -6.265625 7.3125 -5.703125 C 7.3125 -5.023438 7.132812 -4.460938 6.78125 -4.015625 C 6.4375 -3.566406 5.957031 -3.269531 5.34375 -3.125 L 7.453125 0 L 6.1875 0 L 4.125 -3.015625 L 2.28125 -3.015625 L 2.28125 0 Z M 2.28125 -4.015625 L 4.3125 -4.015625 C 4.925781 -4.015625 5.398438 -4.160156 5.734375 -4.453125 C 6.066406 -4.742188 6.234375 -5.160156 6.234375 -5.703125 C 6.234375 -6.234375 6.066406 -6.644531 5.734375 -6.9375 C 5.398438 -7.238281 4.925781 -7.390625 4.3125 -7.390625 L 2.28125 -7.390625 Z M 2.28125 -4.015625 "/></g></g><g style="fill:#444c56;fill-opacity:1;"><g transform="translate(246.875016, 240.346083)"><path style="stroke:none" d="M 0.203125 0 L 3.65625 -8.40625 L 4.640625 -8.40625 L 8.09375 0 L 6.984375 0 L 6.1875 -1.90625 L 2.09375 -1.90625 L 1.328125 0 Z M 2.515625 -2.890625 L 5.796875 -2.890625 L 4.15625 -6.921875 Z M 2.515625 -2.890625 "/></g></g><g style="fill:#444c56;fill-opacity:1;"><g transform="translate(257.795025, 240.346083)"><path style="stroke:none" d="M 4.015625 0.15625 C 3.347656 0.15625 2.765625 0.0390625 2.265625 -0.1875 C 1.773438 -0.414062 1.394531 -0.734375 1.125 -1.140625 C 0.863281 -1.554688 0.726562 -2.035156 0.71875 -2.578125 L 1.78125 -2.578125 C 1.789062 -2.046875 2 -1.625 2.40625 -1.3125 C 2.820312 -1.007812 3.359375 -0.859375 4.015625 -0.859375 C 4.609375 -0.859375 5.078125 -0.972656 5.421875 -1.203125 C 5.773438 -1.429688 5.953125 -1.753906 5.953125 -2.171875 C 5.953125 -2.566406 5.78125 -2.878906 5.4375 -3.109375 C 5.101562 -3.347656 4.554688 -3.554688 3.796875 -3.734375 C 2.765625 -3.984375 2.007812 -4.300781 1.53125 -4.6875 C 1.050781 -5.070312 0.8125 -5.585938 0.8125 -6.234375 C 0.8125 -6.953125 1.082031 -7.519531 1.625 -7.9375 C 2.164062 -8.351562 2.894531 -8.5625 3.8125 -8.5625 C 4.757812 -8.5625 5.503906 -8.320312 6.046875 -7.84375 C 6.597656 -7.375 6.878906 -6.734375 6.890625 -5.921875 L 5.84375 -5.921875 C 5.832031 -6.421875 5.644531 -6.816406 5.28125 -7.109375 C 4.914062 -7.398438 4.425781 -7.546875 3.8125 -7.546875 C 3.21875 -7.546875 2.75 -7.425781 2.40625 -7.1875 C 2.0625 -6.957031 1.890625 -6.640625 1.890625 -6.234375 C 1.890625 -5.890625 2.046875 -5.597656 2.359375 -5.359375 C 2.679688 -5.128906 3.25 -4.914062 4.0625 -4.71875 C 5.132812 -4.445312 5.898438 -4.113281 6.359375 -3.71875 C 6.816406 -3.320312 7.046875 -2.816406 7.046875 -2.203125 C 7.046875 -1.472656 6.769531 -0.894531 6.21875 -0.46875 C 5.675781 -0.0507812 4.941406 0.15625 4.015625 0.15625 Z M 4.015625 0.15625 "/></g></g><g style="fill:#444c56;fill-opacity:1;"><g transform="translate(268.175033, 240.346083)"><path style="stroke:none" d="M 1.21875 0 L 1.21875 -8.40625 L 2.28125 -8.40625 L 2.28125 0 Z M 1.21875 0 "/></g></g><g style="fill:#444c56;fill-opacity:1;"><g transform="translate(274.295036, 240.346083)"><path style="stroke:none" d="M 1.21875 0 L 1.21875 -8.40625 L 2.28125 -8.40625 L 2.28125 -1.015625 L 6.359375 -1.015625 L 6.359375 0 Z M 1.21875 0 "/></g></g><g clip-rule="nonzero" clip-path="url(#7a65b3a4b3)"><g clip-rule="nonzero" clip-path="url(#10503c527c)"><g clip-rule="nonzero" clip-path="url(#b93fba96a4)"><path style=" stroke:none;fill-rule:evenodd;fill:#007c91;fill-opacity:1;" d="M 152.117188 146.113281 C 152.644531 146.167969 152.929688 146.4375 153.277344 147.242188 C 153.621094 148.046875 153.773438 148.652344 153.632812 149.890625 C 153.429688 151.773438 153.183594 153.675781 152.957031 155.621094 C 156.253906 158.074219 159.550781 160.519531 162.867188 163.019531 C 163.152344 163.289062 163.316406 163.667969 163.296875 164.011719 C 163.25 164.425781 163.203125 164.839844 163.128906 165.320312 C 163.046875 165.914062 162.636719 166.261719 162.039062 166.179688 C 161.925781 166.175781 161.699219 166.042969 161.566406 165.992188 C 159.070312 164.878906 156.574219 163.765625 154.027344 162.675781 C 153.433594 162.59375 152.789062 162.535156 152.125 162.425781 C 151.949219 163.960938 151.765625 165.496094 151.605469 167.078125 C 151.492188 167.46875 151.382812 167.734375 151.25 168.074219 C 151.140625 168.34375 150.984375 168.636719 150.832031 168.929688 C 151.589844 169.386719 152.394531 169.824219 153.21875 170.3125 C 153.644531 170.519531 153.898438 170.972656 153.824219 171.453125 C 153.816406 171.566406 153.785156 171.75 153.75 171.933594 C 153.714844 172.507812 153.332031 172.785156 152.757812 172.75 C 152.277344 172.679688 151.75 172.625 151.222656 172.574219 C 150.511719 172.484375 149.800781 172.398438 149.023438 172.285156 C 148.3125 172.199219 147.601562 172.109375 146.84375 172.046875 C 146.363281 171.972656 145.835938 171.917969 145.308594 171.863281 C 144.714844 171.785156 144.433594 171.398438 144.515625 170.804688 C 144.523438 170.6875 144.507812 170.527344 144.542969 170.34375 C 144.617188 169.863281 144.960938 169.488281 145.425781 169.402344 C 146.320312 169.128906 147.210938 168.859375 148.105469 168.585938 C 147.984375 168.300781 147.839844 167.972656 147.8125 167.644531 C 147.785156 167.320312 147.757812 167 147.757812 166.605469 C 147.9375 165.070312 148.117188 163.535156 148.296875 162 C 147.703125 161.917969 147.0625 161.859375 146.398438 161.75 C 143.691406 162.242188 140.988281 162.734375 138.285156 163.222656 C 138.191406 163.265625 137.933594 163.316406 137.769531 163.332031 C 137.175781 163.253906 136.878906 162.820312 136.910156 162.246094 C 136.957031 161.832031 137.003906 161.421875 137.078125 160.9375 C 137.144531 160.574219 137.394531 160.242188 137.703125 160.050781 L 149.109375 155.148438 C 149.308594 153.265625 149.554688 151.367188 149.785156 149.417969 C 149.921875 148.179688 150.207031 147.664062 150.734375 146.933594 C 151.28125 146.25 151.589844 146.058594 152.117188 146.113281 "/></g></g></g></g></svg>